<svg xmlns="http://www.w3.org/2000/svg" viewBox="0 0 24 20"><defs><style>.a{fill:currentColor;}</style></defs><path class="a" d="M15.94,13.52a1.09,1.09,0,0,0-.92.57,2.68,2.68,0,0,0,0,2.76,1,1,0,0,0,1.84,0,2.71,2.71,0,0,0,0-2.76A1.09,1.09,0,0,0,15.94,13.52Z" transform="translate(-4 -6)"/><path class="a" d="M26.54,6H5.46A1.46,1.46,0,0,0,4,7.46V24.54A1.46,1.46,0,0,0,5.46,26H26.54A1.46,1.46,0,0,0,28,24.54V7.46A1.46,1.46,0,0,0,26.54,6ZM12.13,19.71H10.38V14.2a2.05,2.05,0,0,0,0-.54.18.18,0,0,0-.18-.13q-.26,0-.26.63v5.55H8.15V14.2a2,2,0,0,0,0-.54.18.18,0,0,0-.19-.14q-.26,0-.26.68v5.51H5.9V13.6a3.29,3.29,0,0,1,.48-1.86A1.44,1.44,0,0,1,7.62,11q.91,0,1.39,1.2a2.55,2.55,0,0,1,.64-.92A1.29,1.29,0,0,1,10.5,11a1.34,1.34,0,0,1,1.22.72,4.15,4.15,0,0,1,.42,2.07Zm6-1.09a2.49,2.49,0,0,1-4.38,0,5.38,5.38,0,0,1-.91-3.15,5.32,5.32,0,0,1,.91-3.15A2.68,2.68,0,0,1,16,11a2.58,2.58,0,0,1,2.15,1.31A5.41,5.41,0,0,1,19,15.47,5.39,5.39,0,0,1,18.13,18.62Zm4.49-5a.73.73,0,0,0-.29-.09.41.41,0,0,0-.34.21.89.89,0,0,0-.14.51,1.84,1.84,0,0,0,.16.65l.13.33A4.68,4.68,0,0,1,22.49,17a3.5,3.5,0,0,1-.61,2.09,1.79,1.79,0,0,1-1.49.86,1.48,1.48,0,0,1-.84-.28V17.19a.71.71,0,0,0,.44.23.47.47,0,0,0,.38-.19.73.73,0,0,0,.15-.47,3.09,3.09,0,0,0-.25-.81,5.37,5.37,0,0,1-.39-2,3.56,3.56,0,0,1,.59-2.06A1.7,1.7,0,0,1,21.91,11a1.59,1.59,0,0,1,.71.17Zm3.65,0a.73.73,0,0,0-.29-.09.41.41,0,0,0-.34.21.89.89,0,0,0-.14.51,1.84,1.84,0,0,0,.16.65l.13.33A4.68,4.68,0,0,1,26.15,17a3.5,3.5,0,0,1-.61,2.09,1.79,1.79,0,0,1-1.49.86,1.48,1.48,0,0,1-.84-.28V17.19a.71.71,0,0,0,.44.23.47.47,0,0,0,.38-.19.73.73,0,0,0,.15-.47,3.09,3.09,0,0,0-.25-.81,5.37,5.37,0,0,1-.39-2,3.56,3.56,0,0,1,.59-2.06A1.7,1.7,0,0,1,25.56,11a1.59,1.59,0,0,1,.71.17Z" transform="translate(-4 -6)"/></svg>