<svg data-name="alert-circle" xmlns="http://www.w3.org/2000/svg" viewBox="0 0 16 16"><defs><style>.a{fill:none;stroke:currentColor;stroke-miterlimit:10;}.b{fill:currentColor;}</style></defs><circle class="a" cx="8" cy="8" r="6"/><path class="b" d="M7.46,8.17,7.31,5.83q0-.68,0-1a.89.89,0,0,1,.21-.63A.73.73,0,0,1,8,4a.56.56,0,0,1,.56.29,2,2,0,0,1,.14.84,6.49,6.49,0,0,1,0,.65L8.49,8.17a1.88,1.88,0,0,1-.15.66A.38.38,0,0,1,8,9.06a.37.37,0,0,1-.37-.22A2.2,2.2,0,0,1,7.46,8.17ZM8,11.38a.77.77,0,0,1-.52-.19.68.68,0,0,1-.22-.54A.72.72,0,0,1,8,9.92a.73.73,0,0,1,.53.21.69.69,0,0,1,.22.52.68.68,0,0,1-.22.54A.75.75,0,0,1,8,11.38Z"/></svg>
